# xmcd
#
# Track frame offsets: 
#        150
#        14935
#        33392
#        50020
#        61830
#        78892
#        95665
#        110877
#        126472
#        144787
#        159947
#        175855
#        188000
#        200272
#        218295
#        238320
#
# Disc length: 3397 seconds
#
# Revision: 0
# Processed by: cddbd v1.5PL3 Copyright (c) Steve Scherf et al.
# Submitted via: ExactAudioCopy v0.95a4
#
DISCID=dd0d4310
DTITLE=Corky Carroll feat. Chris Darrow - Surf Dogs on the Range
DYEAR=1996
DGENRE=Country
TTITLE0=Hawaii Blues
TTITLE1=Backstreet Girl
TTITLE2=Why Did I Go
TTITLE3=Marshans at the Window
TTITLE4=Goin' to California
TTITLE5=Burning Sands
TTITLE6=Mondo Condo
TTITLE7=One More Song
TTITLE8=For the Turnstyles
TTITLE9=Surf Chick Blues
TTITLE10=Surf Dogs On The Range
TTITLE11=Takin' it Hard
TTITLE12=Nine on the Line
TTITLE13=Hills of Covina
TTITLE14=Sparkle Eyes
TTITLE15=Burning Sands (The Range Mix)
EXTD=
EXTT0=
EXTT1=
EXTT2=
EXTT3=
EXTT4=
EXTT5=
EXTT6=
EXTT7=
EXTT8=
EXTT9=
EXTT10=
EXTT11=
EXTT12=
EXTT13=
EXTT14=
EXTT15=
PLAYORDER=
